<svg xmlns="http://www.w3.org/2000/svg" viewBox="0 0 24 24" id="gear"><path fill="#303C42" d="M23.621 9.215l-2.195-.549a10.142 10.142 0 00-.406-.97l1.167-1.944a.5.5 0 00-.076-.61L18.86 1.887a.5.5 0 00-.611-.075L16.303 2.98c-.321-.154-.645-.29-.969-.406L14.784.38A.5.5 0 0014.3 0H9.7a.5.5 0 00-.485.379l-.549 2.195c-.324.116-.648.252-.97.406L5.753 1.813a.5.5 0 00-.61.075L1.888 5.141a.5.5 0 00-.076.611L2.98 7.696c-.154.322-.29.646-.406.97l-2.195.55A.5.5 0 000 9.7v4.6a.5.5 0 00.379.485l2.195.549c.116.324.252.648.406.97l-1.167 1.944a.5.5 0 00.076.61l3.252 3.253a.502.502 0 00.611.076l1.944-1.167c.322.154.646.29.97.406l.55 2.195A.5.5 0 009.7 24h4.6a.5.5 0 00.485-.379l.549-2.195c.324-.116.648-.252.97-.406l1.944 1.167a.5.5 0 00.61-.076l3.253-3.252a.5.5 0 00.076-.611l-1.167-1.944c.154-.322.29-.646.406-.97l2.195-.55A.5.5 0 0024 14.3V9.7a.5.5 0 00-.379-.485zM12 17c-2.757 0-5-2.243-5-5s2.243-5 5-5 5 2.243 5 5-2.243 5-5 5zM23.5 14.3h.01-.01z"></path><path fill="#1E88E5" d="M20.564 14.761a.499.499 0 0 1 .355-.33L23 13.91v-3.82l-2.081-.52a.499.499 0 0 1-.355-.331 9.03 9.03 0 0 0-.558-1.337.5.5 0 0 1 .016-.485l1.106-1.845-2.7-2.7-1.845 1.106a.5.5 0 0 1-.485.016 9.03 9.03 0 0 0-1.337-.558.499.499 0 0 1-.33-.355L13.91 1h-3.82l-.52 2.081a.499.499 0 0 1-.331.355 9.03 9.03 0 0 0-1.337.558.496.496 0 0 1-.485-.016L5.572 2.871l-2.7 2.701 1.106 1.845a.5.5 0 0 1 .016.485 9.03 9.03 0 0 0-.558 1.337.499.499 0 0 1-.355.33L1 10.09v3.82l2.081.52a.499.499 0 0 1 .355.331c.143.445.331.894.558 1.337a.5.5 0 0 1-.016.485l-1.106 1.845 2.7 2.7 1.844-1.106a.498.498 0 0 1 .485-.016c.444.227.893.415 1.338.558.164.053.29.187.33.355L10.09 23h3.82l.52-2.081a.499.499 0 0 1 .331-.355 9.056 9.056 0 0 0 1.338-.558.503.503 0 0 1 .485.016l1.844 1.106 2.7-2.7-1.106-1.845a.5.5 0 0 1-.016-.485 9.03 9.03 0 0 0 .558-1.337zM12 18c-3.309 0-6-2.691-6-6s2.691-6 6-6 6 2.691 6 6-2.691 6-6 6z"></path><linearGradient id="a" x1="1.04" x2="22.96" y1="6.889" y2="17.11" gradientUnits="userSpaceOnUse"><stop offset="0" stop-color="#FFF" stop-opacity=".2"></stop><stop offset="1" stop-color="#FFF" stop-opacity="0"></stop></linearGradient><path fill="url(#a)" d="M23.621 9.215l-2.195-.549a10.142 10.142 0 0 0-.406-.97l1.167-1.944a.5.5 0 0 0-.076-.61L18.86 1.887a.5.5 0 0 0-.611-.075L16.303 2.98c-.321-.154-.645-.29-.969-.406L14.784.38A.5.5 0 0 0 14.3 0H9.7a.5.5 0 0 0-.485.379l-.549 2.195c-.324.116-.648.252-.97.406L5.753 1.813a.5.5 0 0 0-.61.075L1.888 5.141a.5.5 0 0 0-.076.611L2.98 7.696c-.154.322-.29.646-.406.97l-2.195.55A.5.5 0 0 0 0 9.7v4.6a.5.5 0 0 0 .379.485l2.195.549c.116.324.252.648.406.97l-1.167 1.944a.5.5 0 0 0 .076.61l3.252 3.253a.502.502 0 0 0 .611.076l1.944-1.167c.322.154.646.29.97.406l.55 2.195A.5.5 0 0 0 9.7 24h4.6a.5.5 0 0 0 .485-.379l.549-2.195c.324-.116.648-.252.97-.406l1.944 1.167a.5.5 0 0 0 .61-.076l3.253-3.252a.5.5 0 0 0 .076-.611l-1.167-1.944c.154-.322.29-.646.406-.97l2.195-.55A.5.5 0 0 0 24 14.3V9.7a.5.5 0 0 0-.379-.485zM12 17c-2.757 0-5-2.243-5-5s2.243-5 5-5 5 2.243 5 5-2.243 5-5 5z"></path><path d="M20.564 9.239a9.03 9.03 0 0 0-.558-1.337.5.5 0 0 1 .016-.485l1.106-1.845-2.7-2.7-1.845 1.106a.5.5 0 0 1-.485.016 9.03 9.03 0 0 0-1.337-.558.499.499 0 0 1-.33-.355L13.91 1H12v5c3.309 0 6 2.691 6 6s-2.691 6-6 6v5h1.91l.52-2.081a.499.499 0 0 1 .331-.355 9.056 9.056 0 0 0 1.338-.558.503.503 0 0 1 .485.016l1.844 1.106 2.7-2.7-1.106-1.845a.5.5 0 0 1-.016-.485 9.03 9.03 0 0 0 .558-1.337.499.499 0 0 1 .355-.33L23 13.91v-3.82l-2.081-.52a.499.499 0 0 1-.355-.331z" opacity=".1"></path></svg>